<svg xmlns="http://www.w3.org/2000/svg" viewBox="0 0 63.93 104.19"><defs><style>.a{fill:#002627;}</style></defs><path class="a" d="M57.69,54.47c-2.89-6.38-5.93-12.87-6.47-20a14.22,14.22,0,0,1,1.09-7.07,10.63,10.63,0,0,1,3.57-4.21c1.58-1.11,3.67-1.29,5-2.7a10.85,10.85,0,0,0,3-6.66C64.36,7.41,59.35,2.05,53.32.58,49.3-.4,45.07,0,41,.65A136,136,0,0,0,20.09,5.8C9.48,9.69,0,16.06,0,26.8c0,4.5,3.71,9.67,7.81,9.67,2.92,0,5-1.63,7.4-3.09,1-.64,1.81-1.61,2.85-2.28a10.2,10.2,0,0,1,11.27.1,13.1,13.1,0,0,1,4.83,6.64,32.85,32.85,0,0,1,1.39,11.54c-.1,4.58-.53,9.2.29,13.71.5,2.77,1.46,5.45,2,8.22a13.37,13.37,0,0,1-.65,8.28C34.07,86,26.74,84.87,21.63,82c-3-1.7-5.81-3.74-9.1-4.69s-7.27-.55-9.51,2C.61,82.1,1,86.39,2.44,89.8,6.88,100.4,18.35,104.19,29,104.19a53.67,53.67,0,0,0,5.8-.3c11.77-1.26,23.35-8,26.93-19.83a35,35,0,0,0,.21-18A63,63,0,0,0,57.69,54.47Z"/></svg>