<svg xmlns="http://www.w3.org/2000/svg" viewBox="0 0 141.53 44.54"><defs><style>.a{fill:#002627;}</style></defs><path class="a" d="M126.91,25.51c-2.31,0-5.19.9-8,.9-6.26,0-9.76-6-9.76-12.87C109.19,7.05,112.46,0,119,0a4.7,4.7,0,0,1,5,4.68c0,3.56-3.39,7.28-3.39,9,0,1.3,1,4.41,5.7,4.41,1.7,0,4.24-.85,4.24-3.56,0-4.4-2.88-5.76-2.88-9.59A4.59,4.59,0,0,1,132.44.23c3.84,0,9.09,1.29,9.09,13.15,0,16.7-3.1,28.67-17.55,28.67-5,0-11.8-2.54-11.8-8.24a3.34,3.34,0,0,1,3.11-3.5c2.93,0,6.71,3.44,10.49,3.44,1.87,0,5.25-1.41,5.25-5a3.58,3.58,0,0,0-.39-1.69C130,25.9,128.27,25.51,126.91,25.51Z"/><path class="a" d="M70.3,16.46c-2.43,0-5.47,1.24-7.73,1.24a3.85,3.85,0,0,1-3.72-3.84,3.75,3.75,0,0,1,3.83-3.56c2.71,0,5.31,2.49,8,2.49,3.44,0,5.58-3.9,5.58-7.23C76.28,2,74.08.65,72.22.65,69.91.65,67.2,2,63.13,2A26.05,26.05,0,0,1,56,.57a13.51,13.51,0,0,0-2.7-.48A12,12,0,0,0,48.5.63a3,3,0,0,0-2,2.45,4.29,4.29,0,0,0,1.51,3C50.75,9,51.14,13.6,50.37,17.44a18.19,18.19,0,0,1-.63,2.26c-1.89,5.76,1.35,11.09,1.19,16.87a8.93,8.93,0,0,0,.19,3.35C51.9,42,53.92,42,55.76,42c2.19,0,4.54,0,6.26-1.6,1.26-1.19,1.45-3,1.45-4.62,0-4.86-5.64-5.53-5.64-8.36,0-1.46.68-3,4.85-3,2.37,0,5.31,1.36,7.73,1.36,2.21,0,4-1.3,4-4.86C74.42,18.09,72.84,16.46,70.3,16.46Z"/><path class="a" d="M101.36,16.46c-2.43,0-5.48,1.24-7.73,1.24a3.85,3.85,0,0,1-3.73-3.84,3.76,3.76,0,0,1,3.84-3.56c2.71,0,5.3,2.49,8,2.49,3.45,0,5.59-3.9,5.59-7.23,0-3.61-2.2-4.91-4.06-4.91C101,.65,98.25,2,94.19,2A25.9,25.9,0,0,1,87.07.57a13.64,13.64,0,0,0-2.7-.48,12,12,0,0,0-4.81.54,3,3,0,0,0-2,2.45,4.28,4.28,0,0,0,1.5,3C81.8,9,82.2,13.6,81.43,17.44a20,20,0,0,1-.64,2.26C78.9,25.46,82.14,30.79,82,36.57a8.73,8.73,0,0,0,.19,3.35C83,42,85,42,86.82,42c2.19,0,4.54,0,6.25-1.6,1.27-1.19,1.46-3,1.46-4.62,0-4.86-5.64-5.53-5.64-8.36,0-1.46.67-3,4.85-3,2.37,0,5.3,1.36,7.73,1.36,2.2,0,4-1.3,4-4.86C105.48,18.09,103.9,16.46,101.36,16.46Z"/><path class="a" d="M44.07,7.34c0,3.39-3.17,7.56-3.17,13.66,0,8.75,2.71,11.51,2.71,15.52,0,3.5-1.58,6.38-6.43,6.38C32,42.9,30,40.7,30,37.25c0-5,3.22-6.77,3.22-12.92,0-10.89-3.39-12.19-3.39-16.54,0-3.78,1.75-6,7.17-6S44.07,3.73,44.07,7.34Z"/><path class="a" d="M24.58,23.35c-1.23-2.71-2.52-5.48-2.75-8.5a6.07,6.07,0,0,1,.46-3A4.65,4.65,0,0,1,23.81,10c.68-.47,1.57-.54,2.13-1.14a4.63,4.63,0,0,0,1.29-2.84A5.67,5.67,0,0,0,22.72.39a13.69,13.69,0,0,0-5.26,0,57.85,57.85,0,0,0-8.9,2.2C4,4.27,0,7,0,11.57c0,1.91,1.58,4.12,3.33,4.12a6,6,0,0,0,3.15-1.32c.44-.28.77-.69,1.22-1a4.36,4.36,0,0,1,1.68-.65,4.42,4.42,0,0,1,3.12.69,5.66,5.66,0,0,1,2.06,2.83,14.09,14.09,0,0,1,.59,4.92A29.2,29.2,0,0,0,15.27,27c.21,1.18.62,2.32.85,3.5a5.67,5.67,0,0,1-.28,3.53c-1.32,2.72-4.45,2.25-6.62,1a18.06,18.06,0,0,0-3.88-2,3.91,3.91,0,0,0-4,.87c-1,1.19-.86,3-.25,4.47,1.89,4.52,6.78,6.13,11.33,6.13a24.19,24.19,0,0,0,2.47-.12c5-.54,10-3.42,11.48-8.45a14.92,14.92,0,0,0,.09-7.68A26.86,26.86,0,0,0,24.58,23.35Z"/></svg>