<svg xmlns="http://www.w3.org/2000/svg" viewBox="0 0 67.55 57.01"><defs><style>.a{fill:#002627;}.b{fill:#96c624;}.c{font-size:14.06px;fill:#fff;font-family:Poppins-Medium, Poppins;font-weight:500;}</style></defs><path class="a" d="M49.9,19.11a1.41,1.41,0,0,0-1.09-.61L18.2,16.76A1.41,1.41,0,0,0,18,19.57L46.8,21.2,40.89,38.65H15.66L11.39,14.39a1.4,1.4,0,0,0-.85-1.06L1.94,9.8a1.4,1.4,0,0,0-1.83.77A1.39,1.39,0,0,0,.87,12.4l7.88,3.24L13.09,40.3a1.41,1.41,0,0,0,1.38,1.17h.45L13,46.88a1.42,1.42,0,0,0,.18,1.28,1.4,1.4,0,0,0,1.15.59h1.19a4.93,4.93,0,1,0,7.28,0H33.08a4.93,4.93,0,1,0,7.28,0h1.4a1.41,1.41,0,1,0,0-2.81H16.32l1.59-4.47h24a1.41,1.41,0,0,0,1.33-1l6.83-20.16A1.44,1.44,0,0,0,49.9,19.11ZM19.16,54.19a2.12,2.12,0,1,1,2.12-2.11A2.12,2.12,0,0,1,19.16,54.19Zm17.56,0a2.12,2.12,0,1,1,2.11-2.11A2.12,2.12,0,0,1,36.72,54.19Z"/><circle class="b" cx="52.45" cy="15.1" r="15.1"/><text class="c" transform="translate(47.95 19.95)">0</text></svg>